<svg xmlns="http://www.w3.org/2000/svg" viewBox="0 0 116 80"><defs><style>.cls-1{fill:#fff;}.cls-2{fill:#b8b7b5;}.cls-3{fill:#e6e6e6;}</style></defs><title>Asset 11</title><g id="Layer_2" data-name="Layer 2"><g id="Layer_1-2" data-name="Layer 1"><rect class="cls-1" x="0.38" y="0.38" width="115.25" height="79.25" rx="4.63"/><path class="cls-2" d="M111,.75A4.26,4.26,0,0,1,115.25,5V75A4.26,4.26,0,0,1,111,79.25H5A4.26,4.26,0,0,1,.75,75V5A4.26,4.26,0,0,1,5,.75H111M111,0H5A5,5,0,0,0,0,5V75a5,5,0,0,0,5,5H111a5,5,0,0,0,5-5V5a5,5,0,0,0-5-5Z"/><rect class="cls-3" x="8.5" y="8.5" width="48" height="62" rx="3"/><rect class="cls-3" x="60.5" y="8.5" width="48" height="62" rx="3"/></g></g></svg>