<svg xmlns="http://www.w3.org/2000/svg" viewBox="0 0 120 80"><defs><style>.cls-1{fill:#fff;}.cls-2{fill:#b8b7b5;}.cls-3{fill:#e6e6e6;}</style></defs><title>Asset 7</title><g id="Layer_2" data-name="Layer 2"><g id="Layer_1-2" data-name="Layer 1"><rect class="cls-1" x="0.38" y="0.38" width="119.25" height="79.25" rx="4.63"/><path class="cls-2" d="M115,.75A4.26,4.26,0,0,1,119.25,5V75A4.26,4.26,0,0,1,115,79.25H5A4.26,4.26,0,0,1,.75,75V5A4.26,4.26,0,0,1,5,.75H115M115,0H5A5,5,0,0,0,0,5V75a5,5,0,0,0,5,5H115a5,5,0,0,0,5-5V5a5,5,0,0,0-5-5Z"/><rect class="cls-3" x="88" y="8" width="24" height="64" rx="3"/><rect class="cls-3" x="8" y="8" width="74" height="64" rx="3"/></g></g></svg>